<svg width="38" height="38" viewBox="0 0 38 38" fill="none" xmlns="http://www.w3.org/2000/svg">
<mask id="mask0_28_2349" style="mask-type:alpha" maskUnits="userSpaceOnUse" x="0" y="0" width="38" height="38">
<rect x="0.378906" y="0.0507812" width="37.1134" height="37.1134" fill="#D9D9D9"/>
</mask>
<g mask="url(#mask0_28_2349)">
<path d="M22.8087 17.047C23.2574 17.047 23.6212 16.6832 23.6212 16.2344C23.6212 15.7857 23.2574 15.4219 22.8087 15.4219C22.3599 15.4219 21.9961 15.7857 21.9961 16.2344C21.9961 16.6832 22.3599 17.047 22.8087 17.047Z" fill="white" stroke="white" stroke-width="0.751012" stroke-miterlimit="10"/>
<path d="M27.043 17.047C27.4918 17.047 27.8556 16.6832 27.8556 16.2344C27.8556 15.7857 27.4918 15.4219 27.043 15.4219C26.5943 15.4219 26.2305 15.7857 26.2305 16.2344C26.2305 16.6832 26.5943 17.047 27.043 17.047Z" fill="white" stroke="white" stroke-width="0.751012" stroke-miterlimit="10"/>
<path d="M22.8087 13.42C23.2574 13.42 23.6212 13.0562 23.6212 12.6075C23.6212 12.1587 23.2574 11.7949 22.8087 11.7949C22.3599 11.7949 21.9961 12.1587 21.9961 12.6075C21.9961 13.0562 22.3599 13.42 22.8087 13.42Z" fill="white" stroke="white" stroke-width="0.751012" stroke-miterlimit="10"/>
<path d="M30.6954 18.672C31.1441 18.672 31.5079 18.3082 31.5079 17.8594C31.5079 17.4107 31.1441 17.0469 30.6954 17.0469C30.2466 17.0469 29.8828 17.4107 29.8828 17.8594C29.8828 18.3082 30.2466 18.672 30.6954 18.672Z" fill="white" stroke="white" stroke-width="0.751012" stroke-miterlimit="10"/>
<path d="M29.6485 23.2218C30.0973 23.2218 30.4611 22.858 30.4611 22.4092C30.4611 21.9605 30.0973 21.5967 29.6485 21.5967C29.1997 21.5967 28.8359 21.9605 28.8359 22.4092C28.8359 22.858 29.1997 23.2218 29.6485 23.2218Z" fill="white" stroke="white" stroke-width="0.751012" stroke-miterlimit="10"/>
<path d="M18.6524 23.9796C19.1012 23.9796 19.465 23.6158 19.465 23.1671C19.465 22.7183 19.1012 22.3545 18.6524 22.3545C18.2036 22.3545 17.8398 22.7183 17.8398 23.1671C17.8398 23.6158 18.2036 23.9796 18.6524 23.9796Z" fill="white" stroke="white" stroke-width="0.751012" stroke-miterlimit="10"/>
<path d="M14.4219 25.7941C14.8707 25.7941 15.2345 25.4303 15.2345 24.9815C15.2345 24.5327 14.8707 24.1689 14.4219 24.1689C13.9732 24.1689 13.6094 24.5327 13.6094 24.9815C13.6094 25.4303 13.9732 25.7941 14.4219 25.7941Z" fill="white" stroke="white" stroke-width="0.751012" stroke-miterlimit="10"/>
<path d="M24.7813 22.4093C25.2301 22.4093 25.5939 22.0455 25.5939 21.5967C25.5939 21.148 25.2301 20.7842 24.7813 20.7842C24.3325 20.7842 23.9688 21.148 23.9688 21.5967C23.9688 22.0455 24.3325 22.4093 24.7813 22.4093Z" fill="white" stroke="white" stroke-width="0.751012" stroke-miterlimit="10"/>
<path d="M22.3672 26.0372C22.816 26.0372 23.1798 25.6734 23.1798 25.2247C23.1798 24.7759 22.816 24.4121 22.3672 24.4121C21.9185 24.4121 21.5547 24.7759 21.5547 25.2247C21.5547 25.6734 21.9185 26.0372 22.3672 26.0372Z" fill="white" stroke="white" stroke-width="0.751012" stroke-miterlimit="10"/>
<path d="M21.004 30.2383C21.4527 30.2383 21.8165 29.8745 21.8165 29.4257C21.8165 28.977 21.4527 28.6132 21.004 28.6132C20.5552 28.6132 20.1914 28.977 20.1914 29.4257C20.1914 29.8745 20.5552 30.2383 21.004 30.2383Z" fill="white" stroke="white" stroke-width="0.751012" stroke-miterlimit="10"/>
<path d="M26.6524 27.5226C27.1012 27.5226 27.465 27.1588 27.465 26.71C27.465 26.2613 27.1012 25.8975 26.6524 25.8975C26.2036 25.8975 25.8398 26.2613 25.8398 26.71C25.8398 27.1588 26.2036 27.5226 26.6524 27.5226Z" fill="white" stroke="white" stroke-width="0.751012" stroke-miterlimit="10"/>
<path d="M18.2657 18.8761C18.7145 18.8761 19.0782 18.5123 19.0782 18.0635C19.0782 17.6148 18.7145 17.251 18.2657 17.251C17.8169 17.251 17.4531 17.6148 17.4531 18.0635C17.4531 18.5123 17.8169 18.8761 18.2657 18.8761Z" fill="white" stroke="white" stroke-width="0.751012" stroke-miterlimit="10"/>
<path d="M16.0821 13.6505C16.5309 13.6505 16.8947 13.2867 16.8947 12.838C16.8947 12.3892 16.5309 12.0254 16.0821 12.0254C15.6333 12.0254 15.2695 12.3892 15.2695 12.838C15.2695 13.2867 15.6333 13.6505 16.0821 13.6505Z" fill="white" stroke="white" stroke-width="0.751012" stroke-miterlimit="10"/>
<path d="M11.8516 16.6749C12.3004 16.6749 12.6642 16.3111 12.6642 15.8624C12.6642 15.4136 12.3004 15.0498 11.8516 15.0498C11.4029 15.0498 11.0391 15.4136 11.0391 15.8624C11.0391 16.3111 11.4029 16.6749 11.8516 16.6749Z" fill="white" stroke="white" stroke-width="0.751012" stroke-miterlimit="10"/>
<path d="M10.4219 11.8107C10.8707 11.8107 11.2345 11.4469 11.2345 10.9981C11.2345 10.5493 10.8707 10.1855 10.4219 10.1855C9.97317 10.1855 9.60938 10.5493 9.60938 10.9981C9.60938 11.4469 9.97317 11.8107 10.4219 11.8107Z" fill="white" stroke="white" stroke-width="0.751012" stroke-miterlimit="10"/>
<path d="M12.711 20.5021C13.1598 20.5021 13.5236 20.1383 13.5236 19.6895C13.5236 19.2407 13.1598 18.877 12.711 18.877C12.2622 18.877 11.8984 19.2407 11.8984 19.6895C11.8984 20.1383 12.2622 20.5021 12.711 20.5021Z" fill="white" stroke="white" stroke-width="0.751012" stroke-miterlimit="10"/>
<path d="M9.50006 26.214C9.94883 26.214 10.3126 25.8502 10.3126 25.4014C10.3126 24.9527 9.94883 24.5889 9.50006 24.5889C9.0513 24.5889 8.6875 24.9527 8.6875 25.4014C8.6875 25.8502 9.0513 26.214 9.50006 26.214Z" fill="white" stroke="white" stroke-width="0.751012" stroke-miterlimit="10"/>
<path d="M7.15631 19.6895C7.60508 19.6895 7.96887 19.3257 7.96887 18.877C7.96887 18.4282 7.60508 18.0644 7.15631 18.0644C6.70755 18.0644 6.34375 18.4282 6.34375 18.877C6.34375 19.3257 6.70755 19.6895 7.15631 19.6895Z" fill="white" stroke="white" stroke-width="0.751012" stroke-miterlimit="10"/>
<path d="M15.0196 30.2384C15.4684 30.2384 15.8322 29.8746 15.8322 29.4258C15.8322 28.9771 15.4684 28.6133 15.0196 28.6133C14.5708 28.6133 14.207 28.9771 14.207 29.4258C14.207 29.8746 14.5708 30.2384 15.0196 30.2384Z" fill="white" stroke="white" stroke-width="0.751012" stroke-miterlimit="10"/>
<path d="M16.8946 8.56751C17.3434 8.56751 17.7072 8.20371 17.7072 7.75494C17.7072 7.30618 17.3434 6.94238 16.8946 6.94238C16.4458 6.94238 16.082 7.30618 16.082 7.75494C16.082 8.20371 16.4458 8.56751 16.8946 8.56751Z" fill="white" stroke="white" stroke-width="0.751012" stroke-miterlimit="10"/>
<path d="M22.3321 9.37903C22.7809 9.37903 23.1447 9.01523 23.1447 8.56647C23.1447 8.1177 22.7809 7.75391 22.3321 7.75391C21.8833 7.75391 21.5195 8.1177 21.5195 8.56647C21.5195 9.01523 21.8833 9.37903 22.3321 9.37903Z" fill="white" stroke="white" stroke-width="0.751012" stroke-miterlimit="10"/>
<path d="M28.1446 12.2072C28.5934 12.2072 28.9572 11.8434 28.9572 11.3946C28.9572 10.9458 28.5934 10.582 28.1446 10.582C27.6958 10.582 27.332 10.9458 27.332 11.3946C27.332 11.8434 27.6958 12.2072 28.1446 12.2072Z" fill="white" stroke="white" stroke-width="0.751012" stroke-miterlimit="10"/>
</g>
</svg>
